<?xml version="1.0" encoding="UTF-8"?>
<svg version="1.1" xmlns="http://www.w3.org/2000/svg" width="67" height="73">
<path d="M0 0 C10.23 0 20.46 0 31 0 C30.00976564 6.93164051 29.76751958 8.43976388 25 13 C20.30243537 15.80047122 16.53122015 16.52884156 11.21484375 15.7109375 C6.66563833 14.25069872 3.33086428 11.1075654 0.80859375 7.11328125 C0 5 0 5 0 0 Z " fill="#FF5B38" transform="translate(9,15)"/>
<path d="M0 0 C4.91036433 4.11100269 5.61918975 6.84013847 6.6875 13.25 C-3.8725 13.25 -14.4325 13.25 -25.3125 13.25 C-22.88514957 3.54059829 -22.88514957 3.54059829 -19.3125 0.25 C-12.6892829 -3.53259288 -6.80467274 -3.59492145 0 0 Z " fill="#8F00FF" transform="translate(52.3125,43.75)"/>
<path d="M0 0 C3.80668295 1.53481294 5.8962489 3.86522081 8.5625 6.9375 C12.16935634 11.07412468 12.16935634 11.07412468 16 15 C15.67 15.99 15.34 16.98 15 18 C13.09814453 18.90722656 13.09814453 18.90722656 10.6328125 19.640625 C9.74722656 19.90617187 8.86164062 20.17171875 7.94921875 20.4453125 C7.01722656 20.71085937 6.08523437 20.97640625 5.125 21.25 C4.20074219 21.53101562 3.27648437 21.81203125 2.32421875 22.1015625 C-4.6027751 24.1324083 -4.6027751 24.1324083 -8 23 C-2.85714286 2.85714286 -2.85714286 2.85714286 0 0 Z " fill="#22C4F7" transform="translate(44,16)"/>
<path d="M0 0 C-0.64458097 3.08359651 -1.29088443 6.16682955 -1.9375 9.25 C-2.11990234 10.12269531 -2.30230469 10.99539062 -2.49023438 11.89453125 C-2.66748047 12.73886719 -2.84472656 13.58320312 -3.02734375 14.453125 C-3.18968506 15.22817383 -3.35202637 16.00322266 -3.51928711 16.80175781 C-3.97361933 18.87936437 -4.4726508 20.93984981 -5 23 C-9.10084544 22.43770914 -11.45399746 20.23867968 -14.5625 17.625 C-15.51253906 16.83351563 -16.46257813 16.04203125 -17.44140625 15.2265625 C-19.37935136 13.54010645 -21.2248267 11.85287449 -23 10 C-22 7 -22 7 -20.18994141 5.90917969 C-19.03244385 5.42046387 -19.03244385 5.42046387 -17.8515625 4.921875 C-16.59085938 4.38820313 -16.59085938 4.38820313 -15.3046875 3.84375 C-14.42039062 3.4828125 -13.53609375 3.121875 -12.625 2.75 C-11.7484375 2.37359375 -10.871875 1.9971875 -9.96875 1.609375 C-3.38565051 -1.12855017 -3.38565051 -1.12855017 0 0 Z " fill="#FFCA10" transform="translate(30,33)"/>
</svg>
