<svg width="25" height="25" viewBox="0 0 25 25" fill="none" xmlns="http://www.w3.org/2000/svg">
<path fill-rule="evenodd" clip-rule="evenodd" d="M11.1122 2.50785e-08C9.33889 0.000151098 7.59129 0.424367 6.01524 1.23726C4.43918 2.05014 3.08039 3.22813 2.05221 4.67294C1.02403 6.11775 0.356285 7.78748 0.104687 9.54282C-0.146912 11.2982 0.0249307 13.0882 0.605877 14.7637C1.18682 16.4391 2.16003 17.9513 3.4443 19.1741C4.72856 20.397 6.28665 21.295 7.98857 21.7932C9.69049 22.2914 11.4869 22.3755 13.2279 22.0383C14.9689 21.7011 16.604 20.9524 17.9968 19.8548L22.7749 24.6327C23.0217 24.8711 23.3522 25.0029 23.6952 25C24.0382 24.997 24.3664 24.8594 24.609 24.6168C24.8516 24.3742 24.9892 24.0461 24.9921 23.7031C24.9951 23.36 24.8632 23.0296 24.6249 22.7828L19.8468 18.0049C21.1395 16.3651 21.9443 14.3945 22.1693 12.3186C22.3942 10.2428 22.0302 8.14553 21.1188 6.2669C20.2075 4.38827 18.7856 2.80416 17.0159 1.69586C15.2463 0.587568 13.2003 -0.000140176 11.1122 2.50785e-08ZM2.60795 11.1206C2.60795 8.86519 3.50393 6.70217 5.0988 5.10736C6.69366 3.51256 8.85676 2.61661 11.1122 2.61661C13.3677 2.61661 15.5308 3.51256 17.1257 5.10736C18.7206 6.70217 19.6165 8.86519 19.6165 11.1206C19.6165 13.376 18.7206 15.539 17.1257 17.1338C15.5308 18.7286 13.3677 19.6246 11.1122 19.6246C8.85676 19.6246 6.69366 18.7286 5.0988 17.1338C3.50393 15.539 2.60795 13.376 2.60795 11.1206Z" fill="#C2C2C2"/>
</svg>
