<svg width="338" height="363" viewBox="0 0 338 363" fill="none" xmlns="http://www.w3.org/2000/svg">
<path d="M148.359 161.492C149.114 161.182 149.903 161.858 149.711 162.652L120.493 283.623C120.317 284.349 119.436 284.633 118.869 284.147L32.9553 210.422C32.3883 209.935 32.5357 209.022 33.2269 208.738L148.359 161.492Z" fill="#FFCA11"/>
<path d="M183.296 200.329C182.515 200.569 181.792 199.823 182.056 199.051L222.207 81.2559C222.448 80.5488 223.351 80.3461 223.871 80.8824L302.688 162.15C303.208 162.686 302.978 163.583 302.264 163.802L183.296 200.329Z" fill="#23C4F7"/>
<mask id="mask0_471_1494" style="mask-type:alpha" maskUnits="userSpaceOnUse" x="140" y="210" width="153" height="153">
<path d="M140.46 286.541C140.46 244.556 174.496 210.521 216.48 210.521C258.465 210.521 292.5 244.556 292.5 286.541C292.5 328.525 258.465 362.561 216.48 362.561C174.496 362.561 140.46 328.525 140.46 286.541Z" fill="#D9D9D9"/>
</mask>
<g mask="url(#mask0_471_1494)">
<path d="M292.5 286.537L140.46 286.537L140.46 210.517L292.5 210.517L292.5 286.537Z" fill="#8F00FF"/>
</g>
<mask id="mask1_471_1494" style="mask-type:alpha" maskUnits="userSpaceOnUse" x="46" y="0" width="153" height="153">
<path d="M198.946 76.0198C198.946 118.004 164.911 152.04 122.926 152.04C80.9415 152.04 46.9063 118.004 46.9063 76.0198C46.9063 34.0352 80.9415 0 122.926 0C164.911 0 198.946 34.0352 198.946 76.0198Z" fill="#D9D9D9"/>
</mask>
<g mask="url(#mask1_471_1494)">
<path d="M46.9062 76.0234L198.946 76.0234V152.043H46.9063L46.9062 76.0234Z" fill="#FF5C38"/>
</g>
</svg>
