<svg width="30" height="30" viewBox="0 0 30 30" fill="none" xmlns="http://www.w3.org/2000/svg">
<path d="M15 30C10.8056 30 7.25722 29.3544 4.355 28.0633C1.45278 26.7722 0.00111111 25.1956 0 23.3333V6.66667C0 4.83333 1.46556 3.26389 4.39667 1.95833C7.32778 0.652778 10.8622 0 15 0C19.1378 0 22.6728 0.652778 25.605 1.95833C28.5372 3.26389 30.0022 4.83333 30 6.66667V23.3333C30 25.1944 28.5483 26.7711 25.645 28.0633C22.7417 29.3556 19.1933 30.0011 15 30ZM15 10.0417C17.4722 10.0417 19.9583 9.68722 22.4583 8.97833C24.9583 8.26944 26.3611 7.51278 26.6667 6.70833C26.3611 5.90278 24.9656 5.13889 22.48 4.41667C19.9944 3.69444 17.5011 3.33333 15 3.33333C12.4722 3.33333 9.99333 3.68778 7.56333 4.39667C5.13333 5.10556 3.72333 5.87611 3.33333 6.70833C3.72222 7.54167 5.13222 8.30555 7.56333 9C9.99444 9.69444 12.4733 10.0417 15 10.0417ZM15 18.3333C16.1667 18.3333 17.2917 18.2778 18.375 18.1667C19.4583 18.0556 20.4933 17.8956 21.48 17.6867C22.4667 17.4778 23.3972 17.2211 24.2717 16.9167C25.1461 16.6122 25.9444 16.265 26.6667 15.875V10.875C25.9444 11.2639 25.1461 11.6111 24.2717 11.9167C23.3972 12.2222 22.4667 12.4794 21.48 12.6883C20.4933 12.8972 19.4583 13.0567 18.375 13.1667C17.2917 13.2767 16.1667 13.3322 15 13.3333C13.8333 13.3344 12.6944 13.2789 11.5833 13.1667C10.4722 13.0544 9.42333 12.8944 8.43667 12.6867C7.45 12.4789 6.52667 12.2222 5.66667 11.9167C4.80667 11.6111 4.02889 11.2639 3.33333 10.875V15.875C4.02778 16.2639 4.80556 16.6111 5.66667 16.9167C6.52778 17.2222 7.45167 17.4794 8.43833 17.6883C9.425 17.8972 10.4733 18.0567 11.5833 18.1667C12.6933 18.2767 13.8322 18.3322 15 18.3333ZM15 26.6667C16.2778 26.6667 17.5767 26.5694 18.8967 26.375C20.2167 26.1806 21.4317 25.9239 22.5417 25.605C23.6517 25.2861 24.5822 24.925 25.3333 24.5217C26.0844 24.1183 26.5289 23.7083 26.6667 23.2917V19.2083C25.9444 19.5972 25.1461 19.9444 24.2717 20.25C23.3972 20.5556 22.4667 20.8128 21.48 21.0217C20.4933 21.2306 19.4583 21.39 18.375 21.5C17.2917 21.61 16.1667 21.6656 15 21.6667C13.8333 21.6678 12.6944 21.6122 11.5833 21.5C10.4722 21.3878 9.42333 21.2278 8.43667 21.02C7.45 20.8122 6.52667 20.5556 5.66667 20.25C4.80667 19.9444 4.02889 19.5972 3.33333 19.2083V23.3333C3.47222 23.75 3.91 24.1528 4.64667 24.5417C5.38333 24.9306 6.30667 25.285 7.41667 25.605C8.52667 25.925 9.74889 26.1817 11.0833 26.375C12.4178 26.5683 13.7233 26.6656 15 26.6667Z" fill="#868686"/>
</svg>
