<svg width="34" height="34" viewBox="0 0 34 34" fill="none" xmlns="http://www.w3.org/2000/svg">
<path d="M27.3889 17C26.6374 17 25.9168 16.7015 25.3854 16.1701C24.8541 15.6388 24.5556 14.9181 24.5556 14.1667C24.5556 13.4152 24.8541 12.6945 25.3854 12.1632C25.9168 11.6318 26.6374 11.3333 27.3889 11.3333C28.1403 11.3333 28.861 11.6318 29.3924 12.1632C29.9237 12.6945 30.2222 13.4152 30.2222 14.1667C30.2222 14.9181 29.9237 15.6388 29.3924 16.1701C28.861 16.7015 28.1403 17 27.3889 17ZM21.7222 9.44444C20.9708 9.44444 20.2501 9.14593 19.7188 8.61458C19.1874 8.08323 18.8889 7.36256 18.8889 6.61111C18.8889 5.85966 19.1874 5.13899 19.7188 4.60764C20.2501 4.07629 20.9708 3.77778 21.7222 3.77778C22.4737 3.77778 23.1943 4.07629 23.7257 4.60764C24.257 5.13899 24.5556 5.85966 24.5556 6.61111C24.5556 7.36256 24.257 8.08323 23.7257 8.61458C23.1943 9.14593 22.4737 9.44444 21.7222 9.44444ZM12.2778 9.44444C11.5263 9.44444 10.8057 9.14593 10.2743 8.61458C9.74295 8.08323 9.44444 7.36256 9.44444 6.61111C9.44444 5.85966 9.74295 5.13899 10.2743 4.60764C10.8057 4.07629 11.5263 3.77778 12.2778 3.77778C13.0292 3.77778 13.7499 4.07629 14.2812 4.60764C14.8126 5.13899 15.1111 5.85966 15.1111 6.61111C15.1111 7.36256 14.8126 8.08323 14.2812 8.61458C13.7499 9.14593 13.0292 9.44444 12.2778 9.44444ZM6.61111 17C5.85966 17 5.13899 16.7015 4.60764 16.1701C4.07629 15.6388 3.77778 14.9181 3.77778 14.1667C3.77778 13.4152 4.07629 12.6945 4.60764 12.1632C5.13899 11.6318 5.85966 11.3333 6.61111 11.3333C7.36256 11.3333 8.08323 11.6318 8.61458 12.1632C9.14593 12.6945 9.44444 13.4152 9.44444 14.1667C9.44444 14.9181 9.14593 15.6388 8.61458 16.1701C8.08323 16.7015 7.36256 17 6.61111 17ZM17 0C12.4913 0 8.1673 1.79107 4.97918 4.97918C1.79107 8.1673 0 12.4913 0 17C0 21.5087 1.79107 25.8327 4.97918 29.0208C8.1673 32.2089 12.4913 34 17 34C17.7514 34 18.4721 33.7015 19.0035 33.1701C19.5348 32.6388 19.8333 31.9181 19.8333 31.1667C19.8333 30.43 19.55 29.7689 19.0967 29.2778C18.6622 28.7678 18.3789 28.1067 18.3789 27.3889C18.3789 26.6374 18.6774 25.9168 19.2088 25.3854C19.7401 24.8541 20.4608 24.5556 21.2122 24.5556H24.5556C27.0604 24.5556 29.4626 23.5605 31.2338 21.7893C33.005 20.0182 34 17.6159 34 15.1111C34 6.76222 26.3878 0 17 0Z" fill="#FF5C38"/>
</svg>
