<svg width="28" height="40" viewBox="0 0 28 40" fill="none" xmlns="http://www.w3.org/2000/svg">
<path fill-rule="evenodd" clip-rule="evenodd" d="M14.0102 8.99948C15.2028 8.99948 16.3465 8.5254 17.1898 7.68154C18.0331 6.83767 18.5069 5.69314 18.5069 4.49974C18.5069 3.30633 18.0331 2.16181 17.1898 1.31794C16.3465 0.474078 15.2028 0 14.0102 0C12.8176 0 11.6738 0.474078 10.8305 1.31794C9.9872 2.16181 9.51344 3.30633 9.51344 4.49974C9.51344 5.69314 9.9872 6.83767 10.8305 7.68154C11.6738 8.5254 12.8176 8.99948 14.0102 8.99948ZM27.9201 11.4393C28.0685 11.9485 28.0087 12.4959 27.7538 12.9609C27.4989 13.426 27.0699 13.7707 26.561 13.9192C24.1868 14.6112 22.0423 15.1331 20.0058 15.4801V37.9978C20.0064 38.5129 19.8083 39.0084 19.4529 39.381C19.0974 39.7536 18.612 39.9746 18.0978 39.9979C17.5835 40.0213 17.0801 39.8451 16.6924 39.5063C16.3048 39.1674 16.0627 38.6919 16.0167 38.1788L15.0174 27.1794C15.012 27.1193 15.0094 27.0589 15.0094 26.9984H13.0109C13.011 27.0589 13.0083 27.1193 13.0029 27.1794L12.0036 38.1788C11.9576 38.6919 11.7156 39.1674 11.3279 39.5063C10.9402 39.8451 10.4368 40.0213 9.92255 39.9979C9.4083 39.9746 8.92288 39.7536 8.56744 39.381C8.21199 39.0084 8.01393 38.5129 8.01452 37.9978V15.4431C5.983 15.0931 3.84655 14.5822 1.48427 13.9262C1.22894 13.8582 0.989626 13.7401 0.780176 13.5789C0.570725 13.4177 0.395295 13.2166 0.264036 12.9871C0.132777 12.7577 0.0482938 12.5044 0.0154754 12.2421C-0.017343 11.9797 0.00215499 11.7134 0.0728401 11.4587C0.143525 11.2039 0.263995 10.9657 0.427279 10.7578C0.590563 10.5499 0.79342 10.3765 1.02411 10.2476C1.25481 10.1187 1.50876 10.0368 1.77127 10.0067C2.03379 9.97668 2.29966 9.999 2.55349 10.0724C7.15815 11.3503 10.6176 11.9843 14.0192 11.9993C17.4127 12.0143 20.8642 11.4143 25.4419 10.0794C25.9507 9.9309 26.4977 9.99075 26.9624 10.2458C27.4272 10.5008 27.7716 10.9302 27.9201 11.4393Z" fill="#868686"/>
</svg>
