<svg width="32" height="38" viewBox="0 0 32 38" fill="none" xmlns="http://www.w3.org/2000/svg">
<path d="M2 27.9096H30M27.4545 2.45508H4.54545C3.87036 2.45508 3.22291 2.72326 2.74555 3.20062C2.26818 3.67799 2 4.32544 2 5.00053V33.0005C2 33.6756 2.26818 34.3231 2.74555 34.8004C3.22291 35.2778 3.87036 35.546 4.54545 35.546H27.4545C28.1296 35.546 28.7771 35.2778 29.2545 34.8004C29.7318 34.3231 30 33.6756 30 33.0005V5.00053C30 4.32544 29.7318 3.67799 29.2545 3.20062C28.7771 2.72326 28.1296 2.45508 27.4545 2.45508Z" stroke="#FF5C38" stroke-width="3" stroke-linecap="round" stroke-linejoin="round"/>
<path d="M8.36328 11.3659C9.85237 9.26078 12.716 6.8095 14.7269 8.82041C17.2724 11.3659 9.11419 18.348 12.1815 20.275C15.5313 22.38 20.4898 11.8139 23.636 13.9113C26.7822 16.0088 19.8178 20.275 23.636 22.8204" stroke="#FF5C38" stroke-width="3" stroke-linecap="round" stroke-linejoin="round"/>
</svg>
