<svg width="36" height="36" viewBox="0 0 36 36" fill="none" xmlns="http://www.w3.org/2000/svg">
<path d="M18.25 34.5C27.2246 34.5 34.5 27.2246 34.5 18.25C34.5 9.27537 27.2246 2 18.25 2C9.27537 2 2 9.27537 2 18.25C2 27.2246 9.27537 34.5 18.25 34.5Z" stroke="#FF5C38" stroke-width="3" stroke-linecap="round" stroke-linejoin="round"/>
<path d="M13.677 12.9801C13.677 13.3645 13.3655 13.6761 12.9811 13.6761C12.5967 13.6761 12.2852 13.3645 12.2852 12.9801C12.2852 12.5958 12.5967 12.2842 12.9811 12.2842C13.3655 12.2842 13.677 12.5958 13.677 12.9801Z" fill="#FF5C38" stroke="#FF5C38" stroke-width="3"/>
<path d="M24.2161 12.9801C24.2161 13.3645 23.9045 13.6761 23.5202 13.6761C23.1358 13.6761 22.8242 13.3645 22.8242 12.9801C22.8242 12.5958 23.1358 12.2842 23.5202 12.2842C23.9045 12.2842 24.2161 12.5958 24.2161 12.9801Z" fill="#FF5C38" stroke="#FF5C38" stroke-width="3"/>
<path d="M26.1572 19.5674C26.6421 19.5674 27.0408 19.9609 26.9917 20.4458C26.7971 22.3934 25.9575 24.2201 24.6061 25.6361C23.2548 27.052 21.4691 27.9759 19.5327 28.2611C17.5963 28.5463 15.6202 28.1764 13.918 27.2102C12.2158 26.244 10.8851 24.7369 10.1373 22.9281C9.8086 22.135 9.59789 21.2981 9.51193 20.444C9.46274 19.9609 9.86152 19.5674 10.3464 19.5674H26.1572Z" stroke="#FF5C38" stroke-width="3" stroke-linecap="round" stroke-linejoin="round"/>
</svg>
