<svg width="44" height="36" viewBox="0 0 44 36" fill="none" xmlns="http://www.w3.org/2000/svg">
<path d="M10 5.19734C12.5825 2.7217 19.0437 2.7217 21.1137 9.44645C25.505 1.4966 33.2625 -0.359601 37.1423 5.19734M34.1863 16.289C36.8433 16.289 39 18.9078 39 22.1439C39 25.3801 36.8433 28 34.1863 28C31.5416 28 29.3837 25.3822 29.3837 22.145C29.3837 18.9078 31.5416 16.289 34.1863 16.289ZM15.1761 16.5987C17.0104 16.5987 18.5068 18.9428 18.5068 21.8353C18.5068 24.7278 17.0104 27.0719 15.1761 27.0719C13.3307 27.0719 11.8332 24.7278 11.8332 21.8353C11.8332 18.9428 13.3307 16.5987 15.1761 16.5987Z" stroke="#FF5C38" stroke-width="3" stroke-linecap="round" stroke-linejoin="round"/>
<path d="M31.5058 9C37.3013 9 42 14.5945 42 21.4994C42 28.4044 37.3024 34 31.5058 34C25.6987 34 21 28.4055 21 21.4994C21 14.5934 25.6987 9 31.5058 9Z" stroke="#FF5C38" stroke-width="3" stroke-linecap="round" stroke-linejoin="round"/>
<path d="M22 26.7494C17.1813 36.63 -0.134018 35.4016 2.21848 18.7066C4.34909 8.81426 18.4685 6.34357 21.7638 16.5943" stroke="#FF5C38" stroke-width="3" stroke-linecap="round" stroke-linejoin="round"/>
</svg>
