<svg width="191" height="124" viewBox="0 0 191 124" fill="none" xmlns="http://www.w3.org/2000/svg">
<path d="M89.004 41.2573C89.759 40.9474 90.5473 41.6238 90.3557 42.4172L83.6224 70.2945C83.447 71.0207 82.5661 71.3051 81.9991 70.8186L62.2005 53.829C61.6335 53.3424 61.7809 52.4286 62.4721 52.145L89.004 41.2573Z" fill="#FFCA11"/>
<path d="M100.564 50.0595C99.7839 50.2991 99.0608 49.5535 99.3241 48.7809L108.577 21.6356C108.818 20.9284 109.721 20.7257 110.241 21.262L128.404 39.9898C128.924 40.5261 128.694 41.4227 127.98 41.642L100.564 50.0595Z" fill="#23C4F7"/>
<mask id="mask0_337_2412" style="mask-type:alpha" maskUnits="userSpaceOnUse" x="88" y="53" width="39" height="39">
<path d="M88.3686 72.2155C88.3686 61.6341 96.9466 53.0561 107.528 53.0561C118.11 53.0561 126.688 61.6341 126.688 72.2155C126.688 82.797 118.11 91.375 107.528 91.375C96.9466 91.375 88.3686 82.797 88.3686 72.2155Z" fill="#D9D9D9"/>
</mask>
<g mask="url(#mask0_337_2412)">
<path d="M126.688 72.2148L88.3686 72.2148L88.3686 53.0554L126.688 53.0554L126.688 72.2148Z" fill="#8F00FF"/>
</g>
<mask id="mask1_337_2412" style="mask-type:alpha" maskUnits="userSpaceOnUse" x="64" y="0" width="40" height="39">
<path d="M103.108 19.1595C103.108 29.7409 94.53 38.3189 83.9485 38.3189C73.367 38.3189 64.7891 29.7409 64.7891 19.1595C64.7891 8.57798 73.367 0 83.9485 0C94.53 0 103.108 8.57798 103.108 19.1595Z" fill="#D9D9D9"/>
</mask>
<g mask="url(#mask1_337_2412)">
<path d="M64.7891 19.1602L103.108 19.1602V38.3196H64.7891V19.1602Z" fill="#FF5C38"/>
</g>
<path d="M176.041 124H170.771C170.34 124 170.023 123.909 169.819 123.728C169.638 123.524 169.547 123.206 169.547 122.776V100.744C169.547 100.313 169.638 100.007 169.819 99.8255C170.023 99.6215 170.34 99.5195 170.771 99.5195H176.041C176.472 99.5195 176.778 99.6215 176.959 99.8255C177.163 100.007 177.265 100.313 177.265 100.744V108.564H178.625L182.127 100.642C182.286 100.234 182.501 99.9502 182.773 99.7915C183.045 99.6102 183.396 99.5195 183.827 99.5195H189.063C189.448 99.5195 189.709 99.6215 189.845 99.8255C189.981 100.007 189.97 100.279 189.811 100.642L186.343 108.564C187.612 108.632 188.621 109.085 189.369 109.924C190.14 110.74 190.525 111.828 190.525 113.188V122.776C190.525 123.206 190.423 123.524 190.219 123.728C190.038 123.909 189.732 124 189.301 124H184.065C183.634 124 183.317 123.909 183.113 123.728C182.932 123.524 182.841 123.206 182.841 122.776V116.146C182.841 115.783 182.75 115.5 182.569 115.296C182.388 115.092 182.116 114.99 181.753 114.99H177.265V122.776C177.265 123.206 177.163 123.524 176.959 123.728C176.778 123.909 176.472 124 176.041 124Z" fill="#919191"/>
<path d="M164.436 124H147.13C146.7 124 146.382 123.909 146.178 123.728C145.997 123.524 145.906 123.206 145.906 122.776V100.744C145.906 100.313 145.997 100.007 146.178 99.8255C146.382 99.6215 146.7 99.5195 147.13 99.5195H152.4C152.831 99.5195 153.137 99.6215 153.318 99.8255C153.522 100.007 153.624 100.313 153.624 100.744V117.574H158.282V112.066C158.282 111.635 158.373 111.329 158.554 111.148C158.758 110.944 159.076 110.842 159.506 110.842H164.436C164.867 110.842 165.173 110.944 165.354 111.148C165.558 111.329 165.66 111.635 165.66 112.066V122.776C165.66 123.206 165.558 123.524 165.354 123.728C165.173 123.909 164.867 124 164.436 124Z" fill="#919191"/>
<path d="M129.947 106.66L128.348 111.828H133.687L132.089 106.66C131.998 106.456 131.896 106.308 131.783 106.218C131.692 106.127 131.579 106.082 131.443 106.082H130.592C130.456 106.082 130.332 106.127 130.219 106.218C130.128 106.308 130.037 106.456 129.947 106.66ZM128.008 122.776C128.008 123.206 127.906 123.524 127.702 123.728C127.521 123.909 127.215 124 126.785 124H121.786C121.356 124 121.039 123.909 120.835 123.728C120.653 123.524 120.562 123.206 120.562 122.776V113.8C120.562 113.12 120.664 112.338 120.868 111.454C121.095 110.57 121.435 109.538 121.889 108.36L124.847 100.642C124.983 100.256 125.187 99.9729 125.459 99.7915C125.753 99.6102 126.127 99.5195 126.581 99.5195H135.727C136.157 99.5195 136.509 99.6102 136.781 99.7915C137.075 99.9729 137.29 100.256 137.426 100.642L140.385 108.36C140.838 109.538 141.166 110.57 141.37 111.454C141.597 112.338 141.711 113.12 141.711 113.8V122.776C141.711 123.206 141.609 123.524 141.405 123.728C141.223 123.909 140.917 124 140.486 124H135.353C134.899 124 134.559 123.909 134.333 123.728C134.129 123.524 134.027 123.206 134.027 122.776V118.016H128.008V122.776Z" fill="#919191"/>
<path d="M111.681 124H106.173C105.742 124 105.425 123.909 105.221 123.728C105.039 123.524 104.949 123.206 104.949 122.776V106.082H99.9506C99.5199 106.082 99.2026 105.991 98.9986 105.81C98.8172 105.606 98.7266 105.288 98.7266 104.858V100.744C98.7266 100.313 98.8172 100.007 98.9986 99.8255C99.2026 99.6215 99.5199 99.5195 99.9506 99.5195H117.903C118.333 99.5195 118.639 99.6215 118.821 99.8255C119.025 100.007 119.127 100.313 119.127 100.744V104.858C119.127 105.288 119.025 105.606 118.821 105.81C118.639 105.991 118.333 106.082 117.903 106.082H112.905V122.776C112.905 123.206 112.803 123.524 112.599 123.728C112.417 123.909 112.111 124 111.681 124Z" fill="#919191"/>
<path d="M77.5556 124H72.4896C72.059 124 71.7416 123.909 71.5376 123.728C71.3563 123.524 71.2656 123.206 71.2656 122.776V100.744C71.2656 100.313 71.3563 100.007 71.5376 99.8255C71.7416 99.6215 72.059 99.5195 72.4896 99.5195H77.9636C78.3263 99.5195 78.621 99.5989 78.8476 99.7575C79.097 99.9162 79.3236 100.177 79.5276 100.54L82.5876 106.082C82.701 106.286 82.7916 106.433 82.8596 106.524C82.9503 106.614 83.0636 106.66 83.1996 106.66H83.5056C83.6416 106.66 83.7436 106.614 83.8116 106.524C83.9023 106.433 84.0043 106.286 84.1176 106.082L87.1436 100.54C87.3476 100.177 87.563 99.9162 87.7896 99.7575C88.039 99.5989 88.345 99.5195 88.7076 99.5195H94.2156C94.6463 99.5195 94.9523 99.6215 95.1336 99.8255C95.3376 100.007 95.4396 100.313 95.4396 100.744V122.776C95.4396 123.206 95.3376 123.524 95.1336 123.728C94.9523 123.909 94.6463 124 94.2156 124H88.9796C88.549 124 88.2316 123.909 88.0276 123.728C87.8463 123.524 87.7556 123.206 87.7556 122.776V110.808L85.7496 114.514C85.5456 114.899 85.2963 115.182 85.0016 115.364C84.7296 115.522 84.3783 115.602 83.9476 115.602H82.5876C82.157 115.602 81.7943 115.522 81.4996 115.364C81.2276 115.182 80.9896 114.899 80.7856 114.514L78.7796 110.808V122.776C78.7796 123.206 78.6776 123.524 78.4736 123.728C78.2923 123.909 77.9863 124 77.5556 124Z" fill="#8F00FF"/>
<path d="M51.3646 124C50.934 124 50.6166 123.909 50.4126 123.728C50.2313 123.524 50.1406 123.206 50.1406 122.776V118.73C50.1406 118.299 50.2313 117.993 50.4126 117.812C50.6166 117.608 50.934 117.506 51.3646 117.506H54.7306V106.082H51.3646C50.934 106.082 50.6166 105.991 50.4126 105.81C50.2313 105.606 50.1406 105.288 50.1406 104.858V100.744C50.1406 100.313 50.2313 100.007 50.4126 99.8255C50.6166 99.6215 50.934 99.5195 51.3646 99.5195H65.8486C66.2793 99.5195 66.5853 99.6215 66.7666 99.8255C66.9706 100.007 67.0726 100.313 67.0726 100.744V104.858C67.0726 105.288 66.9706 105.606 66.7666 105.81C66.5853 105.991 66.2793 106.082 65.8486 106.082H62.5506V117.506H65.8486C66.2793 117.506 66.5853 117.608 66.7666 117.812C66.9706 117.993 67.0726 118.299 67.0726 118.73V122.776C67.0726 123.206 66.9706 123.524 66.7666 123.728C66.5853 123.909 66.2793 124 65.8486 124H51.3646Z" fill="#23C4F7"/>
<path d="M33.0981 105.64V109.992H35.6481C36.2374 109.992 36.6341 109.844 36.8381 109.55C37.0421 109.232 37.1441 108.847 37.1441 108.394V107.238C37.1441 106.784 37.0421 106.41 36.8381 106.116C36.6341 105.798 36.2374 105.64 35.6481 105.64H33.0981ZM31.8741 124H26.6381C26.2074 124 25.8901 123.909 25.6861 123.728C25.5047 123.524 25.4141 123.206 25.4141 122.776V100.744C25.4141 100.313 25.5047 100.007 25.6861 99.8255C25.8901 99.6215 26.2074 99.5195 26.6381 99.5195H37.9601C40.4987 99.5195 42.2441 100.052 43.1961 101.118C44.1707 102.16 44.6581 103.52 44.6581 105.198V106.762C44.6581 107.714 44.5107 108.53 44.2161 109.21C43.9441 109.867 43.4567 110.343 42.7541 110.638C43.9781 110.774 44.9641 111.272 45.7121 112.134C46.4827 112.995 46.8681 114.14 46.8681 115.568V122.776C46.8681 123.206 46.7661 123.524 46.5621 123.728C46.3807 123.909 46.0747 124 45.6441 124H40.3741C39.9434 124 39.6261 123.909 39.4221 123.728C39.2407 123.524 39.1501 123.206 39.1501 122.776V117.574C39.1501 117.075 39.0481 116.712 38.8441 116.486C38.6627 116.236 38.3341 116.112 37.8581 116.112H33.0981V122.776C33.0981 123.206 32.9961 123.524 32.7921 123.728C32.6107 123.909 32.3047 124 31.8741 124Z" fill="#FFCA11"/>
<path d="M20.0428 124H9.33275C6.49942 124 4.39142 123.433 3.00875 122.3C1.64875 121.166 0.96875 119.421 0.96875 117.064V106.456C0.96875 104.098 1.64875 102.353 3.00875 101.22C4.39142 100.086 6.49942 99.5195 9.33275 99.5195H17.8328C18.2634 99.5195 18.5694 99.6215 18.7508 99.8255C18.9548 100.007 19.0568 100.313 19.0568 100.744V104.858C19.0568 105.288 18.9548 105.606 18.7508 105.81C18.5694 105.991 18.2634 106.082 17.8328 106.082H10.7608C10.0581 106.082 9.53675 106.229 9.19675 106.524C8.85675 106.796 8.68675 107.215 8.68675 107.782V115.908C8.68675 116.474 8.81142 116.894 9.06075 117.166C9.33275 117.438 9.72942 117.574 10.2508 117.574H13.5488V112.27C13.5488 111.839 13.6394 111.533 13.8208 111.352C14.0248 111.148 14.3421 111.046 14.7728 111.046H20.0428C20.4734 111.046 20.7794 111.148 20.9608 111.352C21.1648 111.533 21.2668 111.839 21.2668 112.27V122.776C21.2668 123.206 21.1648 123.524 20.9608 123.728C20.7794 123.909 20.4734 124 20.0428 124Z" fill="#FF5C38"/>
</svg>
