<svg width="16" height="16" viewBox="0 0 16 16" fill="none" xmlns="http://www.w3.org/2000/svg">
<g clip-path="url(#clip0_1324_34)">
<path d="M8.91516 5.59194L9.39994 5.46962L9.15534 4.5L8.67053 4.62228C7.67614 4.87463 6.77156 5.39865 6.05797 6.13574C5.34438 6.87282 4.84992 7.79389 4.62991 8.79594L4.52344 9.28447L5.5005 9.49741L5.60694 9.00884C5.78941 8.18951 6.19503 7.43665 6.77891 6.83359C7.36279 6.23053 8.10215 5.80079 8.91516 5.59194Z" fill="black"/>
<path d="M11.3632 4.62097C10.7417 2.25241 8.58259 0.5 6.02187 0.5C2.97706 0.5 0.5 2.97706 0.5 6.02187C0.5 8.60366 2.28125 10.777 4.67922 11.3781C4.98911 12.559 5.68144 13.6039 6.64804 14.3496C7.61464 15.0954 8.80104 15.4999 10.0219 15.5C13.0666 15.5 15.5437 13.0229 15.5437 9.97828C15.5435 7.43972 13.8012 5.22925 11.3632 4.62097ZM1.5 6.02187C1.5 3.52844 3.52844 1.5 6.02187 1.5C8.51531 1.5 10.5437 3.52844 10.5437 6.02187C10.5437 8.51531 8.51528 10.5437 6.02187 10.5437C3.52847 10.5437 1.5 8.51503 1.5 6.02187ZM10.0219 14.5C8.11778 14.5 6.42156 13.2858 5.77678 11.5378C5.85803 11.5413 5.93972 11.5435 6.02187 11.5435C6.36471 11.5435 6.70681 11.5116 7.04375 11.4483L10.0945 14.4991C10.0702 14.4995 10.046 14.5 10.0219 14.5ZM11.3196 14.3099L8.13313 11.1236C8.6248 10.9191 9.08436 10.6447 9.49756 10.3088L12.7616 13.5728C12.3292 13.9035 11.8407 14.1532 11.3195 14.3099H11.3196ZM13.4853 12.882L10.2141 9.61116C10.5724 9.19358 10.8664 8.72487 11.0863 8.22053L14.3022 11.4364C14.1214 11.9646 13.8443 12.4547 13.485 12.882H13.4853ZM14.5351 10.2548L11.4282 7.14787C11.5052 6.77745 11.5439 6.40009 11.5438 6.02175C11.5438 5.91909 11.5407 5.81716 11.5352 5.71591C12.4147 6.02993 13.1757 6.60793 13.7142 7.37089C14.2528 8.13386 14.5425 9.04453 14.5438 9.97841C14.5435 10.0711 14.5403 10.1633 14.5348 10.2548H14.5351Z" fill="black"/>
</g>
<defs>
<clipPath id="clip0_1324_34">
<rect width="16" height="16" fill="white"/>
</clipPath>
</defs>
</svg>
