<svg width="38" height="38" viewBox="0 0 38 38" fill="none" xmlns="http://www.w3.org/2000/svg">
<path d="M34.1335 12.3899C34.1778 12.0593 34.2 11.7293 34.2 11.4C34.2 6.8799 30.1283 3.2528 25.6101 3.8665C24.2934 1.5238 21.7854 0 19 0C16.2146 0 13.7066 1.5238 12.3899 3.8665C7.8622 3.2528 3.8 6.8799 3.8 11.4C3.8 11.7293 3.82217 12.0593 3.8665 12.3899C1.5238 13.7085 0 16.2165 0 19C0 21.7835 1.5238 24.2915 3.8665 25.6101C3.8228 25.9383 3.80058 26.2689 3.8 26.6C3.8 31.1201 7.8622 34.7377 12.3899 34.1335C13.7066 36.4762 16.2146 38 19 38C21.7854 38 24.2934 36.4762 25.6101 34.1335C30.1283 34.7377 34.2 31.1201 34.2 26.6C34.2 26.2707 34.1778 25.9407 34.1335 25.6101C36.4762 24.2915 38 21.7835 38 19C38 16.2165 36.4762 13.7085 34.1335 12.3899Z" fill="#CACACA"/>
<path d="M12.3359 28L12.3125 25.4453L18.4062 19.8438C20 18.3203 20.8438 17.3828 20.8438 16.0469C20.8438 14.5469 19.6953 13.6094 18.1484 13.6094C16.5547 13.6094 15.5234 14.6172 15.5234 16.2344H12.1719C12.1484 12.9062 14.6094 10.7969 18.1953 10.7969C21.8281 10.7969 24.2422 12.8594 24.2422 15.8125C24.2422 17.7344 23.3047 19.3281 19.8125 22.4922L17.2344 25V25.0938H24.4766V28H12.3359Z" fill="#5E4B02"/>
</svg>
