<svg width="38" height="38" viewBox="0 0 38 38" fill="none" xmlns="http://www.w3.org/2000/svg">
<path d="M34.1335 12.3899C34.1778 12.0593 34.2 11.7293 34.2 11.4C34.2 6.8799 30.1283 3.2528 25.6101 3.8665C24.2934 1.5238 21.7854 0 19 0C16.2146 0 13.7066 1.5238 12.3899 3.8665C7.8622 3.2528 3.8 6.8799 3.8 11.4C3.8 11.7293 3.82217 12.0593 3.8665 12.3899C1.5238 13.7085 0 16.2165 0 19C0 21.7835 1.5238 24.2915 3.8665 25.6101C3.8228 25.9383 3.80058 26.2689 3.8 26.6C3.8 31.1201 7.8622 34.7377 12.3899 34.1335C13.7066 36.4762 16.2146 38 19 38C21.7854 38 24.2934 36.4762 25.6101 34.1335C30.1283 34.7377 34.2 31.1201 34.2 26.6C34.2 26.2707 34.1778 25.9407 34.1335 25.6101C36.4762 24.2915 38 21.7835 38 19C38 16.2165 36.4762 13.7085 34.1335 12.3899Z" fill="#A28D3F"/>
<path d="M18.6172 28.2344C14.8906 28.2344 12.2188 26.1719 12.1484 23.2188H15.7109C15.7812 24.4844 17 25.3281 18.6406 25.3281C20.3281 25.3281 21.5469 24.3672 21.5234 23.0078C21.5469 21.625 20.3047 20.6406 18.3125 20.6406H16.7422V18.0391H18.3125C19.9766 18.0391 21.1484 17.125 21.1484 15.7891C21.1484 14.5 20.1641 13.6094 18.6641 13.6094C17.1641 13.6094 15.9219 14.4531 15.875 15.7422H12.5C12.5469 12.8125 15.1953 10.7969 18.6641 10.7969C22.2031 10.7969 24.5703 12.8828 24.5469 15.5781C24.5703 17.4766 23.2344 18.8359 21.3359 19.1641V19.3047C23.8203 19.6094 25.2031 21.1328 25.1797 23.2422C25.2031 26.1484 22.4375 28.2344 18.6172 28.2344Z" fill="#5E4B02"/>
</svg>
