<svg width="38" height="38" viewBox="0 0 38 38" fill="none" xmlns="http://www.w3.org/2000/svg">
<path d="M34.1335 12.3899C34.1778 12.0593 34.2 11.7293 34.2 11.4C34.2 6.8799 30.1283 3.2528 25.6101 3.8665C24.2934 1.5238 21.7854 0 19 0C16.2146 0 13.7066 1.5238 12.3899 3.8665C7.8622 3.2528 3.8 6.8799 3.8 11.4C3.8 11.7293 3.82217 12.0593 3.8665 12.3899C1.5238 13.7085 0 16.2165 0 19C0 21.7835 1.5238 24.2915 3.8665 25.6101C3.8228 25.9383 3.80058 26.2689 3.8 26.6C3.8 31.1201 7.8622 34.7377 12.3899 34.1335C13.7066 36.4762 16.2146 38 19 38C21.7854 38 24.2934 36.4762 25.6101 34.1335C30.1283 34.7377 34.2 31.1201 34.2 26.6C34.2 26.2707 34.1778 25.9407 34.1335 25.6101C36.4762 24.2915 38 21.7835 38 19C38 16.2165 36.4762 13.7085 34.1335 12.3899Z" fill="#FFDF69"/>
<path d="M21.5234 11V27.9688H17.9844V14.3516H17.8906L14 16.7891V13.6719L18.1953 11H21.5234Z" fill="#5E4B02"/>
</svg>
